<svg xmlns="http://www.w3.org/2000/svg" viewBox="0 0 108.57 108.57"><defs><style>.cls-1{fill:#7839f3;}.cls-2{fill:#fff;}</style></defs><title>Asset 7</title><g id="Layer_2" data-name="Layer 2"><g id="Layer_1-2" data-name="Layer 1"><circle id="Ellipse_4" data-name="Ellipse 4" class="cls-1" cx="54.29" cy="54.29" r="54.29"/><path class="cls-2" d="M35.72,84.48H30l1.2-6a12.15,12.15,0,0,1,11.9-9.74h5.76l-1.21,6A12.12,12.12,0,0,1,35.72,84.48Z"/><path class="cls-2" d="M54.7,63.48H32.87l1.2-5.95A12.14,12.14,0,0,1,46,47.79H67.79l-1.2,6A12.12,12.12,0,0,1,54.7,63.48Z"/><path class="cls-2" d="M69.82,42.35h-34l1.2-6a12.15,12.15,0,0,1,11.9-9.74h34l-1.2,6A12.13,12.13,0,0,1,69.82,42.35Z"/></g></g></svg>