<svg id="Copy_Grid_Plus.1" data-name="Copy, Grid, Plus.1" xmlns="http://www.w3.org/2000/svg" width="24" height="24" viewBox="0 0 24 24">
  <g id="Group_3" data-name="Group 3">
    <path id="Path_17" data-name="Path 17" d="M15.5,20h3a2,2,0,0,0,2-2V15" fill="none" stroke="#fff" stroke-linecap="round" stroke-linejoin="round" stroke-width="1.5"/>
    <path id="Path_18" data-name="Path 18" d="M10.447,20H5.5a2,2,0,0,1-2-2V13.053a2,2,0,0,1,2-2h4.947a2,2,0,0,1,2,2V18A2,2,0,0,1,10.447,20Z" fill="none" stroke="#fff" stroke-linecap="round" stroke-linejoin="round" stroke-width="1.5"/>
    <path id="Path_19" data-name="Path 19" d="M8.5,3h-3a2,2,0,0,0-2,2V8" fill="none" stroke="#fff" stroke-linecap="round" stroke-linejoin="round" stroke-width="1.5"/>
    <path id="Path_20" data-name="Path 20" d="M20.5,8V5a2,2,0,0,0-2-2h-3" fill="none" stroke="#fff" stroke-linecap="round" stroke-linejoin="round" stroke-width="1.5"/>
  </g>
  <path id="Path_21" data-name="Path 21" d="M0,0H24V24H0Z" fill="none"/>
</svg>
