<?xml version="1.0" encoding="utf-8"?>
<!-- Generator: Adobe Illustrator 24.1.3, SVG Export Plug-In . SVG Version: 6.00 Build 0)  -->
<svg version="1.1" id="line" xmlns="http://www.w3.org/2000/svg" xmlns:xlink="http://www.w3.org/1999/xlink" x="0px" y="0px"
	 viewBox="0 0 512 512" style="enable-background:new 0 0 512 512;" xml:space="preserve">
<style type="text/css">
	.st0{fill:#5DB988;}
	.st1{fill:#1E1F24;}
</style>
<path class="st0" d="M312,429.9c0-4-2.9-7.3-6.9-7.9l-30-4.3c-10.8-1.5-19.3-10.2-20.5-21.1l-5.1-45.4c-0.4-4-3.9-7.1-7.9-7.1h-73.3
	c3.9,80.3,64.1,146.5,143.6,158.1L312,429.9z"/>
<path class="st0" d="M376,253.2c0,3.3,2,6.2,5,7.4l19.9,8c9.1,3.6,15.1,12.5,15.1,22.3v25.7c0,4.4,3.6,8,8,8c0.5,0,1.1-0.1,1.6-0.2
	l9.8-2c3.3-0.7,5.9-3.4,6.4-6.7l5-35c1.3-9,7.5-16.5,16.2-19.4l20-6.7c-22.8-40.9-61.5-70.4-106.9-81.6L376,253.2z"/>
<path class="st0" d="M422.8,409.1c-2.5-0.4-5.1,0.4-6.9,2.2l-18.1,18.1c-2.4,2.4-3,6.2-1.5,9.2l9.2,18.3c1.7,3.3,2.5,7,2.5,10.7
	v19.8c31.3-14.9,57.2-39.1,74.3-69.3L422.8,409.1z"/>
<path class="st0" d="M392,467.8c0-1.2-0.3-2.5-0.8-3.6l-9.2-18.3c-4.6-9.2-2.8-20.4,4.5-27.7l18.1-18.1c5.4-5.4,13.1-7.9,20.6-6.8
	l64.6,9.9c18.8-42.7,18.9-91.4,0.2-134.2l-22.1,7.4c-2.9,1-5,3.5-5.4,6.5l-5,35c-1.4,10.1-9.1,18.1-19.1,20.1
	c-4.8,1.2-9.6,2-14.5,2.4c-13.3,0-24-10.7-24-24v-25.6c0-3.3-2-6.2-5-7.4l-19.9-8c-9.1-3.6-15.1-12.5-15.1-22.3v-83.2
	c-90.9-13.9-175.9,48.4-189.8,139.3c-1,6.2-1.6,12.5-1.8,18.8h73.3c12.2,0,22.5,9.2,23.8,21.4l5.1,45.4c0.4,3.6,3.2,6.5,6.8,7
	l30,4.3c11.8,1.7,20.5,11.8,20.6,23.8v73.7c2.7,0.1,5.3,0.4,8,0.4c19.1,0,38-3.4,56-9.8V467.8z"/>
<g>
	<path class="st1" d="M320,8H32C18.7,8,8,18.7,8,32v288c0,13.3,10.7,24,24,24h288c13.3,0,24-10.7,24-24V32C344,18.7,333.3,8,320,8z
		 M32,24h288c4.4,0,8,3.6,8,8v39.8H24V32C24,27.6,27.6,24,32,24z M320,328H32c-4.4,0-8-3.6-8-8V87.8h304V320
		C328,324.4,324.4,328,320,328z"/>
	<circle class="st1" cx="48" cy="48" r="8"/>
	<circle class="st1" cx="88" cy="48" r="8"/>
	<circle class="st1" cx="128" cy="48" r="8"/>
	<path class="st1" d="M249.6,173.2c-1.4-12.1-11.7-21.2-23.8-21.2H216c0-22.1-17.9-40-40-40s-40,17.9-40,40h-10.5
		c-12.2,0-22.5,9.2-23.8,21.3L90,277.3c-1.5,13.2,8,25,21.2,26.5c0.9,0.1,1.8,0.1,2.7,0.1H238c13.3,0,24-10.7,24-24
		c0-0.9-0.1-1.9-0.2-2.8L249.6,173.2z M176,128c13.3,0,24,10.7,24,24h-48C152,138.7,162.7,128,176,128z M238,288H113.9
		c-4.4,0-8-3.6-8-8c0-0.3,0-0.6,0-0.9l11.7-104c0.5-4,3.9-7.1,7.9-7.1H136v16c0,4.4,3.6,8,8,8s8-3.6,8-8v-16h48v16c0,4.4,3.6,8,8,8
		s8-3.6,8-8v-16h9.8c4.1,0,7.5,3,7.9,7.1l12.2,104c0.5,4.4-2.6,8.4-7,8.9C238.6,288,238.3,288,238,288L238,288z"/>
</g>
</svg>
