<?xml version="1.0" encoding="utf-8"?>
<!-- Generator: Adobe Illustrator 24.1.3, SVG Export Plug-In . SVG Version: 6.00 Build 0)  -->
<svg version="1.1" id="line" xmlns="http://www.w3.org/2000/svg" xmlns:xlink="http://www.w3.org/1999/xlink" x="0px" y="0px"
	 viewBox="0 0 512 512" style="enable-background:new 0 0 512 512;" xml:space="preserve">
<style type="text/css">
	.st0{fill:#63ACF2;}
	.st1{fill:#1E1F24;}
</style>
<path class="st0" d="M480,200H200c-13.3,0-24,10.7-24,24v96c0,13.3,10.7,24,24,24h280c13.3,0,24-10.7,24-24v-96
	C504,210.7,493.3,200,480,200z M388,280c0,4.4-3.6,8-8,8h-80c-4.4,0-8-3.6-8-8v-16c0-4.4,3.6-8,8-8s8,3.6,8,8v8h64v-8
	c0-4.4,3.6-8,8-8s8,3.6,8,8V280z"/>
<path class="st0" d="M480,360H200c-13.3,0-24,10.7-24,24v96c0,13.3,10.7,24,24,24h280c13.3,0,24-10.7,24-24v-96
	C504,370.7,493.3,360,480,360z M388,440c0,4.4-3.6,8-8,8h-80c-4.4,0-8-3.6-8-8v-16c0-4.4,3.6-8,8-8s8,3.6,8,8v8h64v-8
	c0-4.4,3.6-8,8-8s8,3.6,8,8V440z"/>
<g>
	<path class="st1" d="M320,72h-40V32c0-13.3-10.7-24-24-24H86.6c-6.4,0-12.5,2.5-17,7L15,69.7c-4.5,4.5-7.1,10.6-7,17V320
		c0,13.3,10.7,24,24,24l0,0h40v32c0,13.3,10.7,24,24,24h224c13.3,0,24-10.7,24-24V96C344,82.7,333.3,72,320,72z M72,35.3V64
		c0,4.4-3.6,8-8,8H35.3L72,35.3z M24,320V88h40c13.3,0,24-10.7,24-24V24h168c4.4,0,8,3.6,8,8v288c0,4.4-3.6,8-8,8H32
		C27.6,328,24,324.4,24,320z M328,376c0,4.4-3.6,8-8,8H96c-4.4,0-8-3.6-8-8v-32h168c13.3,0,24-10.7,24-24V88h40c4.4,0,8,3.6,8,8V376
		z"/>
	<path class="st1" d="M64,136h160c4.4,0,8-3.6,8-8c0-4.4-3.6-8-8-8H64c-4.4,0-8,3.6-8,8C56,132.4,59.6,136,64,136z"/>
	<path class="st1" d="M168,88h56c4.4,0,8-3.6,8-8s-3.6-8-8-8h-56c-4.4,0-8,3.6-8,8S163.6,88,168,88z"/>
	<path class="st1" d="M64,184h160c4.4,0,8-3.6,8-8s-3.6-8-8-8H64c-4.4,0-8,3.6-8,8S59.6,184,64,184z"/>
	<path class="st1" d="M64,232h160c4.4,0,8-3.6,8-8s-3.6-8-8-8H64c-4.4,0-8,3.6-8,8S59.6,232,64,232z"/>
	<path class="st1" d="M232,272c0-4.4-3.6-8-8-8H64c-4.4,0-8,3.6-8,8s3.6,8,8,8h160C228.4,280,232,276.4,232,272z"/>
</g>
</svg>
