<?xml version="1.0" encoding="utf-8"?>
<!-- Generator: Adobe Illustrator 24.1.3, SVG Export Plug-In . SVG Version: 6.00 Build 0)  -->
<svg version="1.1" id="line" xmlns="http://www.w3.org/2000/svg" xmlns:xlink="http://www.w3.org/1999/xlink" x="0px" y="0px"
	 viewBox="0 0 512 512" style="enable-background:new 0 0 512 512;" xml:space="preserve">
<style type="text/css">
	.st0{fill:#FFC754;}
	.st1{fill:#1E1F24;}
</style>
<path class="st0" d="M482.2,299l-128-160c-3-3.5-8.3-3.8-11.7-0.8c-0.3,0.2-0.6,0.5-0.8,0.8l-128,160c-2.8,3.4-2.2,8.5,1.2,11.2
	c1.4,1.1,3.2,1.8,5,1.8h56v184c0,4.4,3.6,8,8,8h128c4.4,0,8-3.6,8-8V312h56c4.4,0,8-3.6,8-8C484,302.2,483.4,300.4,482.2,299z
	 M396,472c0,4.4-3.6,8-8,8h-32c-4.4,0-8-3.6-8-8s3.6-8,8-8h24v-32c0-4.4,3.6-8,8-8s8,3.6,8,8V472z"/>
<path class="st1" d="M340,344h-32v-24c0-13.3-10.7-24-24-24h-64V136h136c4.4,0,8-3.6,8-8c0-2.1-0.8-4.2-2.3-5.7L327.3,88l34.3-34.3
	c3.1-3.1,3.1-8.2,0-11.3c-1.5-1.5-3.5-2.3-5.7-2.3H220v-8c0-13.3-10.7-24-24-24s-24,10.7-24,24v264h-64c-13.3,0-24,10.7-24,24v24H52
	c-13.3,0-24,10.7-24,24v32c0,4.4,3.6,8,8,8h320c4.4,0,8-3.6,8-8v-32C364,354.7,353.3,344,340,344z M336.7,56l-26.3,26.3
	c-3.1,3.1-3.1,8.2,0,11.3l26.3,26.3H220V56L336.7,56z M188,32c0-4.4,3.6-8,8-8s8,3.6,8,8v264h-16V32z M100,320c0-4.4,3.6-8,8-8h176
	c4.4,0,8,3.6,8,8v24H100L100,320z M348,392H44v-24c0-4.4,3.6-8,8-8h288c4.4,0,8,3.6,8,8V392z"/>
</svg>
