<svg id="Mobile_Devices_Messages" data-name="Mobile, Devices, Messages" xmlns="http://www.w3.org/2000/svg" width="24" height="24" viewBox="0 0 24 24">
  <g id="Group_1" data-name="Group 1">
    <path id="Path_1" data-name="Path 1" d="M8.75,18.5h2.5" fill="none" stroke="#fff" stroke-linecap="round" stroke-linejoin="round" stroke-width="1.5"/>
    <path id="Path_2" data-name="Path 2" d="M15,12.977V19a2,2,0,0,1-2,2H7a2,2,0,0,1-2-2V7A2,2,0,0,1,7,5h3.6" fill="none" stroke="#fff" stroke-linecap="round" stroke-linejoin="round" stroke-width="1.5"/>
    <path id="Path_3" data-name="Path 3" d="M13.019,7.5a.124.124,0,0,0-.124.125.125.125,0,1,0,.25,0,.127.127,0,0,0-.126-.125" fill="none" stroke="#fff" stroke-linecap="round" stroke-linejoin="round" stroke-width="1.5"/>
    <path id="Path_4" data-name="Path 4" d="M15.519,7.5a.124.124,0,0,0-.124.125.125.125,0,1,0,.25,0,.127.127,0,0,0-.126-.125" fill="none" stroke="#fff" stroke-linecap="round" stroke-linejoin="round" stroke-width="1.5"/>
    <path id="Path_5" data-name="Path 5" d="M18.019,7.5a.125.125,0,1,0,.125.125.125.125,0,0,0-.125-.125" fill="none" stroke="#fff" stroke-linecap="round" stroke-linejoin="round" stroke-width="1.5"/>
    <path id="Path_6" data-name="Path 6" d="M10.633,10.059a5.509,5.509,0,1,1,2.327,2.317L10.019,13Z" fill="none" stroke="#fff" stroke-linecap="round" stroke-linejoin="round" stroke-width="1.5"/>
  </g>
  <path id="Path_7" data-name="Path 7" d="M0,0H24V24H0Z" transform="translate(0 24) rotate(-90)" fill="none"/>
</svg>
