<?xml version="1.0" encoding="utf-8"?>
<!-- Generator: Adobe Illustrator 24.1.3, SVG Export Plug-In . SVG Version: 6.00 Build 0)  -->
<svg version="1.1" id="Ebene_1" xmlns="http://www.w3.org/2000/svg" xmlns:xlink="http://www.w3.org/1999/xlink" x="0px" y="0px"
	 viewBox="0 0 415 70" style="enable-background:new 0 0 415 70;" xml:space="preserve">
<style type="text/css">
	.st0{fill:#161616;}
</style>
<g>
	<g>
		<path class="st0" d="M13.7,42.6c0.2,2,1,3.6,2.4,4.7c1.5,1.2,3.4,1.8,5.8,1.8c2,0,3.6-0.4,4.9-1.3c1.3-0.9,1.9-2,1.9-3.5
			c0-1.1-0.3-1.9-1.1-2.5c-0.7-0.6-1.7-1.1-3-1.5s-3.2-0.8-5.9-1.3c-2.6-0.5-4.8-1.1-6.6-1.9c-1.8-0.8-3.2-1.9-4.3-3.5
			c-1.1-1.5-1.7-3.6-1.7-6.1c0-2.3,0.6-4.4,1.9-6.2s3-3.2,5.3-4.3c2.3-1,4.8-1.6,7.6-1.6c2.9,0,5.5,0.5,7.9,1.6
			c2.3,1.1,4.2,2.6,5.5,4.5c1.3,1.9,2,4,2.1,6.4H28c-0.2-1.7-0.9-3.1-2.2-4.1s-2.9-1.6-4.9-1.6c-1.9,0-3.4,0.4-4.5,1.2
			s-1.7,1.9-1.7,3.4c0,1.1,0.3,1.9,1,2.5c0.7,0.6,1.6,1.1,2.9,1.4c1.3,0.4,3.2,0.8,5.8,1.3c2.7,0.5,4.9,1.1,6.7,1.8s3.3,1.9,4.4,3.4
			c1.1,1.5,1.7,3.5,1.7,6c0,2.4-0.7,4.6-2,6.5s-3.2,3.4-5.5,4.5c-2.4,1.1-5,1.6-8,1.6c-3.2,0-6-0.6-8.5-1.7
			c-2.5-1.2-4.4-2.8-5.8-4.8S5.3,45,5.2,42.4L13.7,42.6z"/>
		<path class="st0" d="M83.5,29.1c2,2.1,3,5.5,3,10.4v16.1h-8V39.2c0-4.4-1.7-6.6-5.1-6.6c-1.7,0-3.1,0.6-4.2,1.8
			c-1.1,1.2-1.6,2.9-1.6,5.1v16h-8V39.2c0-4.4-1.7-6.6-5.1-6.6c-1.7,0-3.1,0.6-4.2,1.9c-1,1.3-1.6,3-1.6,5.1v16h-8V26.3h7l0.7,3.6
			c1-1.3,2.2-2.2,3.5-2.9c1.4-0.7,3.1-1,5.1-1.1c4.2,0,7.1,1.6,8.7,4.9c1.1-1.6,2.5-2.8,4.2-3.7s3.7-1.3,5.9-1.3
			C79,26,81.5,27,83.5,29.1z"/>
		<path class="st0" d="M120.3,48.8v6.8h-4.1c-3.7,0-5.5-1.6-5.4-4.8c-1.1,1.7-2.4,2.9-3.9,3.8c-1.6,0.9-3.4,1.3-5.6,1.3
			c-3.3,0-5.9-0.7-7.9-2.2s-3-3.6-3-6.3c0-3.1,1.1-5.5,3.4-7.2s5.6-2.5,10-2.5h5.8v-1.4c0-1.3-0.5-2.4-1.5-3.2s-2.3-1.2-4-1.2
			c-1.5,0-2.7,0.3-3.6,1c-0.9,0.6-1.5,1.5-1.7,2.6h-7.7c0.3-3,1.6-5.3,4-7c2.4-1.6,5.5-2.5,9.5-2.5c4.1,0,7.3,0.9,9.6,2.7
			c2.3,1.8,3.4,4.5,3.4,7.9v10.3c0,0.7,0.2,1.2,0.5,1.5s0.8,0.4,1.4,0.4C119.5,48.7,120.3,48.7,120.3,48.8z M109.6,43h-5.9
			c-1.7,0-3,0.3-3.9,1s-1.4,1.6-1.4,2.8c0,1,0.4,1.8,1.2,2.4c0.8,0.6,1.8,0.9,3.2,0.9c2.1,0,3.7-0.6,4.9-1.8s1.8-2.8,1.9-4.8V43z"/>
		<path class="st0" d="M123.4,15.7h8v39.8h-8V15.7z"/>
		<path class="st0" d="M137,15.7h8v39.8h-8V15.7z"/>
		<path class="st0" d="M181.4,15.7c2.8,0,5.3,0.5,7.5,1.6s3.9,2.6,5.1,4.6s1.8,4.3,1.8,7c0,2.7-0.6,5-1.8,7c-1.2,2-2.9,3.5-5.1,4.6
			s-4.7,1.6-7.5,1.6h-7.7v13.4h-8.5V15.7H181.4z M173.8,35.1h6.9c2,0,3.6-0.5,4.8-1.6c1.2-1.1,1.8-2.6,1.8-4.4
			c0-1.9-0.6-3.4-1.8-4.5c-1.2-1.1-2.8-1.6-4.8-1.6h-6.9V35.1z"/>
		<path class="st0" d="M203.7,54c-2.3-1.2-4.1-3-5.4-5.3s-1.9-4.9-1.9-7.8c0-3,0.6-5.6,1.9-7.8c1.3-2.3,3.1-4,5.4-5.3
			c2.3-1.2,5-1.8,8.1-1.8s5.8,0.6,8.1,1.8c2.3,1.2,4.1,3,5.4,5.3s1.9,4.9,1.9,7.8c0,3-0.6,5.6-1.9,7.9c-1.3,2.3-3.1,4-5.4,5.2
			s-5,1.8-8.1,1.8C208.8,55.8,206.1,55.2,203.7,54z M217.1,47c1.3-1.6,2-3.6,2-6.1s-0.7-4.5-2-6.1s-3.1-2.3-5.3-2.3
			c-2.2,0-3.9,0.8-5.3,2.3c-1.3,1.6-2,3.6-2,6.1s0.7,4.5,2,6.1s3.1,2.3,5.3,2.3C214.1,49.3,215.8,48.5,217.1,47z"/>
		<path class="st0" d="M249.4,26.3v7.3h-3.2c-2.3,0-3.9,0.7-5,2c-1.1,1.4-1.6,3.2-1.6,5.6v14.3h-8V26.3h7.3l0.7,4.4
			c0.9-1.4,2-2.5,3.2-3.3c1.3-0.7,3-1.1,5.2-1.1H249.4z"/>
		<path class="st0" d="M253,18.1h8v8.2h6.6v6.8H261v12.8c0,1,0.2,1.8,0.7,2.2c0.4,0.5,1.2,0.7,2.2,0.7h4.1v6.8h-6.6
			c-5.6,0-8.4-2.8-8.4-8.4L253,18.1L253,18.1z"/>
		<path class="st0" d="M273.6,17.8c1.5-1.4,3.7-2.1,6.6-2.1h6.5v6.8h-4.9c-1.6,0-2.4,0.8-2.4,2.4v1.4h7.3v6.8h-7.3v22.4h-8V23.8
			C271.4,21.2,272.1,19.2,273.6,17.8z"/>
		<path class="st0" d="M294.8,54c-2.3-1.2-4.1-3-5.4-5.3s-1.9-4.9-1.9-7.8c0-3,0.6-5.6,1.9-7.8c1.3-2.3,3.1-4,5.4-5.3
			c2.3-1.2,5-1.8,8.1-1.8s5.8,0.6,8.1,1.8c2.3,1.2,4.1,3,5.4,5.3s1.9,4.9,1.9,7.8c0,3-0.6,5.6-1.9,7.9c-1.3,2.3-3.1,4-5.4,5.2
			s-5,1.8-8.1,1.8S297.1,55.2,294.8,54z M308.2,47c1.3-1.6,2-3.6,2-6.1s-0.7-4.5-2-6.1s-3.1-2.3-5.3-2.3c-2.2,0-3.9,0.8-5.3,2.3
			c-1.3,1.6-2,3.6-2,6.1s0.7,4.5,2,6.1s3.1,2.3,5.3,2.3S306.9,48.5,308.2,47z"/>
		<path class="st0" d="M322.7,15.7h8v39.8h-8V15.7z"/>
		<path class="st0" d="M343.6,15.4c0.9,0.9,1.3,1.9,1.3,3.2s-0.4,2.4-1.3,3.2c-0.9,0.9-2,1.3-3.3,1.3s-2.4-0.4-3.3-1.3
			c-0.9-0.9-1.3-2-1.3-3.2c0-1.3,0.4-2.4,1.3-3.2c0.9-0.9,2-1.3,3.3-1.3C341.7,14.2,342.8,14.6,343.6,15.4z M336.2,26.3h8v29.2h-8
			V26.3z"/>
		<path class="st0" d="M356,54c-2.3-1.2-4.1-3-5.4-5.3s-1.9-4.9-1.9-7.8c0-3,0.6-5.6,1.9-7.8c1.3-2.3,3.1-4,5.4-5.3
			c2.3-1.2,5-1.8,8.1-1.8s5.8,0.6,8.1,1.8c2.3,1.2,4.1,3,5.4,5.3s1.9,4.9,1.9,7.8c0,3-0.6,5.6-1.9,7.9c-1.3,2.3-3.1,4-5.4,5.2
			s-5,1.8-8.1,1.8S358.4,55.2,356,54z M369.4,47c1.3-1.6,2-3.6,2-6.1s-0.7-4.5-2-6.1s-3.1-2.3-5.3-2.3c-2.2,0-3.9,0.8-5.3,2.3
			c-1.3,1.6-2,3.6-2,6.1s0.7,4.5,2,6.1s3.1,2.3,5.3,2.3C366.4,49.3,368.1,48.5,369.4,47z"/>
		<path class="st0" d="M390.2,45.8c0.1,1.3,0.7,2.3,1.9,3.1c1.1,0.8,2.6,1.2,4.4,1.2c1.7,0,3-0.3,4-0.8s1.5-1.3,1.5-2.4
			c0-0.8-0.2-1.3-0.7-1.7s-1.1-0.7-1.9-0.8c-0.8-0.2-2.2-0.4-4.1-0.6c-2.6-0.3-4.7-0.8-6.4-1.3c-1.7-0.5-3.1-1.4-4.1-2.5
			s-1.5-2.7-1.5-4.5c0-1.9,0.5-3.6,1.6-5c1-1.5,2.5-2.6,4.4-3.4s4.1-1.2,6.5-1.2c4,0,7.2,0.9,9.6,2.6s3.8,4,3.9,6.9h-7.6
			c-0.1-1.1-0.7-2-1.7-2.7s-2.4-1.1-4-1.1c-1.5,0-2.7,0.3-3.7,0.9c-0.9,0.6-1.4,1.3-1.4,2.3c0,0.7,0.2,1.2,0.7,1.5s1.1,0.6,1.9,0.7
			c0.8,0.2,2.1,0.3,4,0.5c3.9,0.5,7,1.3,9.1,2.5s3.2,3.3,3.2,6.3c0,1.9-0.6,3.6-1.7,5s-2.7,2.5-4.7,3.3s-4.3,1.2-6.9,1.2
			c-4.1,0-7.3-0.9-9.9-2.7c-2.5-1.8-3.9-4.3-4-7.4h7.6V45.8z"/>
	</g>
</g>
</svg>
